<svg xmlns="http://www.w3.org/2000/svg" xmlns:xlink="http://www.w3.org/1999/xlink" width="500" zoomAndPan="magnify" viewBox="0 0 375 374.999991" height="500" preserveAspectRatio="xMidYMid meet" version="1.0"><defs><g/><clipPath id="f71c88bf6e"><path d="M 161 71.734375 L 214.890625 71.734375 L 214.890625 160 L 161 160 Z M 161 71.734375 " clip-rule="nonzero"/></clipPath><clipPath id="3a40df4130"><path d="M 146.640625 99 L 201 99 L 201 187.234375 L 146.640625 187.234375 Z M 146.640625 99 " clip-rule="nonzero"/></clipPath></defs><g clip-path="url(#f71c88bf6e)"><path fill="#db78aa" d="M 214.550781 157.789062 C 214.464844 157.308594 214.34375 156.71875 214.210938 156.019531 C 214.132812 155.671875 214.046875 155.300781 213.957031 154.902344 C 213.867188 154.503906 213.757812 154.082031 213.628906 153.644531 C 213.144531 151.875 212.457031 149.734375 211.394531 147.382812 C 211.140625 146.789062 210.835938 146.195312 210.542969 145.578125 C 210.222656 144.972656 209.90625 144.335938 209.539062 143.710938 C 208.832031 142.445312 208.019531 141.148438 207.09375 139.855469 C 206.269531 138.691406 205.359375 137.519531 204.375 136.359375 C 204.878906 136.871094 205.363281 137.378906 205.820312 137.878906 C 207.566406 139.796875 208.972656 141.601562 210.058594 143.144531 C 210.601562 143.914062 211.058594 144.625 211.460938 145.242188 C 211.84375 145.871094 212.191406 146.398438 212.433594 146.84375 C 212.6875 147.285156 212.882812 147.625 213.015625 147.851562 C 213.140625 148.082031 213.203125 148.203125 213.203125 148.203125 C 213.203125 148.203125 213.15625 148.078125 213.0625 147.828125 C 212.960938 147.585938 212.8125 147.222656 212.617188 146.75 C 212.425781 146.277344 212.148438 145.710938 211.84375 145.03125 C 211.511719 144.367188 211.136719 143.597656 210.660156 142.765625 C 209.726562 141.097656 208.503906 139.101562 206.875 137 C 205.261719 134.886719 203.28125 132.632812 200.964844 130.40625 C 198.652344 128.167969 196.015625 125.941406 193.207031 123.746094 C 190.398438 121.550781 187.417969 119.382812 184.503906 117.144531 C 183.046875 116.027344 181.613281 114.882812 180.257812 113.703125 C 178.910156 112.515625 177.617188 111.296875 176.480469 110.027344 C 175.339844 108.753906 174.359375 107.429688 173.570312 106.058594 C 173.167969 105.371094 172.84375 104.667969 172.542969 103.953125 C 172.25 103.238281 172.023438 102.503906 171.824219 101.757812 C 171.652344 101.003906 171.492188 100.242188 171.414062 99.457031 C 171.386719 99.261719 171.371094 99.0625 171.359375 98.863281 L 171.316406 98.269531 C 171.320312 97.890625 171.316406 97.511719 171.3125 97.132812 C 171.363281 95.636719 171.625 94.1875 172.101562 92.796875 L 172.292969 92.277344 C 172.355469 92.105469 172.410156 91.929688 172.5 91.765625 C 172.660156 91.429688 172.816406 91.09375 172.976562 90.761719 C 173.167969 90.4375 173.355469 90.113281 173.535156 89.785156 C 173.730469 89.464844 173.964844 89.160156 174.167969 88.84375 C 175.058594 87.605469 176.117188 86.457031 177.285156 85.40625 C 178.472656 84.371094 179.765625 83.441406 181.101562 82.601562 C 181.785156 82.203125 182.449219 81.789062 183.15625 81.441406 C 183.839844 81.0625 184.558594 80.753906 185.253906 80.425781 C 188.082031 79.175781 190.949219 78.324219 193.644531 77.746094 C 196.34375 77.175781 198.878906 76.886719 201.125 76.800781 C 203.375 76.726562 205.335938 76.820312 206.941406 76.972656 C 207.738281 77.078125 208.460938 77.132812 209.070312 77.25 C 209.683594 77.355469 210.21875 77.421875 210.632812 77.527344 C 211.476562 77.703125 211.925781 77.796875 211.925781 77.796875 C 211.925781 77.796875 211.496094 77.636719 210.6875 77.328125 C 210.285156 77.167969 209.769531 77.023438 209.164062 76.832031 C 208.566406 76.625 207.851562 76.472656 207.054688 76.273438 C 205.453125 75.925781 203.464844 75.570312 201.140625 75.4375 C 198.820312 75.292969 196.167969 75.328125 193.300781 75.707031 C 191.980469 75.882812 190.613281 76.125 189.21875 76.449219 C 189.882812 76.234375 190.535156 76.042969 191.167969 75.875 C 193.449219 75.277344 195.488281 74.882812 197.183594 74.652344 C 198.027344 74.542969 198.789062 74.464844 199.453125 74.386719 C 200.117188 74.339844 200.683594 74.296875 201.140625 74.261719 C 201.601562 74.234375 201.953125 74.230469 202.191406 74.21875 C 202.429688 74.210938 202.550781 74.207031 202.550781 74.207031 C 202.550781 74.207031 202.429688 74.195312 202.191406 74.167969 C 201.957031 74.144531 201.605469 74.09375 201.144531 74.058594 C 200.679688 74.03125 200.109375 73.996094 199.441406 73.957031 C 198.769531 73.945312 197.996094 73.925781 197.125 73.945312 C 195.390625 73.984375 193.277344 74.128906 190.875 74.542969 C 190.339844 74.632812 189.785156 74.738281 189.21875 74.855469 C 189.230469 74.851562 189.246094 74.847656 189.257812 74.84375 C 192.132812 73.984375 194.859375 73.46875 197.296875 73.171875 C 199.738281 72.890625 201.890625 72.8125 203.671875 72.828125 C 204.558594 72.859375 205.355469 72.859375 206.042969 72.917969 C 206.734375 72.96875 207.328125 72.992188 207.804688 73.0625 C 208.757812 73.167969 209.269531 73.222656 209.269531 73.222656 C 209.269531 73.222656 208.769531 73.097656 207.835938 72.859375 C 207.371094 72.734375 206.785156 72.628906 206.097656 72.492188 C 205.410156 72.339844 204.613281 72.242188 203.71875 72.121094 C 201.925781 71.914062 199.726562 71.730469 197.195312 71.808594 C 194.667969 71.886719 191.808594 72.15625 188.742188 72.839844 C 185.683594 73.523438 182.40625 74.5625 179.132812 76.183594 C 177.496094 76.992188 175.878906 77.96875 174.289062 79.085938 C 172.722656 80.234375 171.207031 81.558594 169.820312 83.078125 C 169.484375 83.46875 169.148438 83.867188 168.808594 84.261719 C 168.65625 84.46875 168.5 84.679688 168.347656 84.890625 C 168.429688 84.757812 168.515625 84.621094 168.601562 84.492188 C 168.734375 84.269531 168.886719 84.070312 169.039062 83.867188 C 169.1875 83.664062 169.335938 83.464844 169.480469 83.269531 C 169.628906 83.070312 169.773438 82.871094 169.921875 82.683594 C 170.078125 82.5 170.230469 82.316406 170.382812 82.136719 C 170.6875 81.785156 170.972656 81.414062 171.28125 81.09375 C 171.902344 80.453125 172.476562 79.816406 173.074219 79.292969 C 173.367188 79.023438 173.652344 78.761719 173.925781 78.507812 C 174.210938 78.269531 174.488281 78.039062 174.75 77.820312 C 175.015625 77.597656 175.269531 77.378906 175.515625 77.183594 C 175.765625 76.992188 176.007812 76.8125 176.234375 76.640625 C 177.144531 75.941406 177.890625 75.445312 178.398438 75.09375 C 178.648438 74.914062 178.84375 74.78125 178.976562 74.699219 C 179.113281 74.617188 179.179688 74.574219 179.179688 74.574219 C 179.179688 74.574219 179.105469 74.601562 178.953125 74.65625 C 178.804688 74.703125 178.585938 74.792969 178.300781 74.914062 C 177.738281 75.167969 176.882812 75.480469 175.859375 76.039062 C 175.597656 76.175781 175.324219 76.316406 175.039062 76.460938 C 174.753906 76.617188 174.464844 76.796875 174.15625 76.976562 C 173.851562 77.15625 173.535156 77.347656 173.203125 77.546875 C 172.886719 77.765625 172.558594 77.996094 172.214844 78.230469 C 171.523438 78.6875 170.832031 79.261719 170.09375 79.851562 C 169.722656 80.148438 169.375 80.496094 169.003906 80.832031 C 168.816406 81.007812 168.632812 81.179688 168.445312 81.355469 C 168.261719 81.539062 168.085938 81.738281 167.90625 81.929688 C 167.722656 82.125 167.542969 82.324219 167.359375 82.523438 C 167.175781 82.726562 166.984375 82.925781 166.816406 83.152344 C 166.46875 83.59375 166.117188 84.046875 165.757812 84.503906 C 165.429688 84.992188 165.101562 85.496094 164.769531 86.007812 C 164.597656 86.257812 164.457031 86.535156 164.308594 86.8125 C 164.160156 87.085938 164.011719 87.367188 163.863281 87.644531 C 162.710938 89.914062 161.867188 92.558594 161.550781 95.359375 C 161.511719 95.707031 161.476562 96.058594 161.4375 96.414062 C 161.417969 96.765625 161.414062 97.117188 161.40625 97.472656 C 161.402344 97.828125 161.394531 98.1875 161.386719 98.542969 C 161.382812 98.902344 161.414062 99.238281 161.425781 99.589844 C 161.503906 100.984375 161.675781 102.414062 162.011719 103.832031 C 162.324219 105.25 162.769531 106.664062 163.332031 108.027344 C 163.894531 109.390625 164.585938 110.695312 165.347656 111.925781 C 166.117188 113.152344 166.960938 114.300781 167.851562 115.371094 C 168.742188 116.4375 169.675781 117.421875 170.632812 118.339844 C 171.578125 119.265625 172.546875 120.113281 173.515625 120.90625 C 174.484375 121.699219 175.453125 122.445312 176.402344 123.148438 C 178.304688 124.558594 180.160156 125.789062 181.902344 126.933594 C 183.644531 128.070312 185.28125 129.105469 186.773438 130.058594 C 188.265625 131.011719 189.625 131.871094 190.8125 132.648438 C 191.988281 133.433594 193.019531 134.105469 193.847656 134.683594 C 194.261719 134.96875 194.632812 135.226562 194.953125 135.449219 C 195.277344 135.667969 195.550781 135.859375 195.769531 136.019531 C 196.210938 136.328125 196.449219 136.492188 196.449219 136.492188 C 196.449219 136.492188 196.257812 136.273438 195.90625 135.867188 C 195.726562 135.664062 195.507812 135.410156 195.238281 135.121094 C 194.972656 134.832031 194.667969 134.496094 194.304688 134.136719 C 193.597656 133.40625 192.71875 132.527344 191.652344 131.566406 C 190.597656 130.597656 189.375 129.519531 188 128.378906 C 187.253906 127.761719 186.460938 127.121094 185.632812 126.457031 C 188.011719 128.09375 190.296875 129.671875 192.425781 131.253906 C 195.171875 133.285156 197.65625 135.324219 199.804688 137.355469 C 201.957031 139.382812 203.777344 141.394531 205.253906 143.292969 C 206.730469 145.1875 207.886719 146.953125 208.761719 148.453125 C 209.636719 149.953125 210.242188 151.1875 210.652344 152.027344 C 211.046875 152.882812 211.253906 153.335938 211.253906 153.335938 C 211.253906 153.335938 211.113281 152.855469 210.84375 151.953125 C 210.539062 151.0625 210.121094 149.738281 209.398438 148.128906 C 208.683594 146.515625 207.726562 144.578125 206.375 142.5 C 206.105469 142.074219 205.816406 141.640625 205.511719 141.203125 C 206.453125 142.347656 207.308594 143.496094 208.070312 144.621094 C 208.472656 145.195312 208.828125 145.773438 209.1875 146.332031 C 209.527344 146.902344 209.871094 147.449219 210.167969 148 C 211.382812 150.1875 212.292969 152.183594 212.953125 153.867188 C 213.121094 154.289062 213.277344 154.6875 213.410156 155.066406 C 213.546875 155.449219 213.675781 155.804688 213.792969 156.132812 C 214.011719 156.800781 214.210938 157.371094 214.347656 157.835938 C 214.625 158.769531 214.777344 159.265625 214.777344 159.265625 C 214.777344 159.265625 214.695312 158.753906 214.550781 157.789062 " fill-opacity="1" fill-rule="nonzero"/></g><g clip-path="url(#3a40df4130)"><path fill="#3871c1" d="M 199.402344 155.394531 C 199.085938 153.972656 198.640625 152.5625 198.078125 151.199219 C 197.515625 149.832031 196.828125 148.53125 196.066406 147.300781 C 195.296875 146.074219 194.453125 144.925781 193.5625 143.855469 C 192.671875 142.789062 191.734375 141.800781 190.78125 140.882812 C 189.835938 139.960938 188.867188 139.113281 187.898438 138.320312 C 186.925781 137.523438 185.960938 136.78125 185.011719 136.078125 C 183.109375 134.667969 181.253906 133.4375 179.511719 132.292969 C 177.765625 131.15625 176.132812 130.121094 174.636719 129.167969 C 173.144531 128.214844 171.789062 127.355469 170.601562 126.578125 C 169.425781 125.789062 168.394531 125.121094 167.566406 124.542969 C 167.152344 124.257812 166.78125 124 166.460938 123.777344 C 166.132812 123.554688 165.863281 123.367188 165.644531 123.207031 C 165.203125 122.898438 164.964844 122.730469 164.964844 122.730469 C 164.964844 122.730469 165.152344 122.949219 165.507812 123.359375 C 165.6875 123.5625 165.90625 123.8125 166.175781 124.105469 C 166.4375 124.394531 166.746094 124.726562 167.105469 125.089844 C 167.816406 125.816406 168.695312 126.699219 169.761719 127.660156 C 170.816406 128.628906 172.035156 129.707031 173.414062 130.84375 C 174.160156 131.464844 174.953125 132.105469 175.777344 132.765625 C 173.402344 131.128906 171.113281 129.554688 168.988281 127.972656 C 166.242188 125.9375 163.757812 123.898438 161.609375 121.867188 C 159.453125 119.84375 157.632812 117.832031 156.15625 115.933594 C 154.679688 114.039062 153.527344 112.273438 152.652344 110.773438 C 151.777344 109.273438 151.167969 108.039062 150.757812 107.195312 C 150.367188 106.34375 150.15625 105.890625 150.15625 105.890625 C 150.15625 105.890625 150.300781 106.371094 150.570312 107.273438 C 150.875 108.160156 151.289062 109.484375 152.015625 111.097656 C 152.730469 112.710938 153.6875 114.648438 155.039062 116.726562 C 155.308594 117.152344 155.597656 117.585938 155.898438 118.023438 C 154.957031 116.875 154.105469 115.730469 153.339844 114.601562 C 152.941406 114.03125 152.582031 113.449219 152.222656 112.894531 C 151.886719 112.324219 151.542969 111.777344 151.242188 111.226562 C 150.03125 109.039062 149.121094 107.039062 148.460938 105.359375 C 148.292969 104.9375 148.136719 104.539062 148.003906 104.15625 C 147.867188 103.777344 147.738281 103.421875 147.617188 103.089844 C 147.402344 102.421875 147.203125 101.855469 147.066406 101.390625 C 146.789062 100.457031 146.636719 99.957031 146.636719 99.957031 C 146.636719 99.957031 146.71875 100.472656 146.863281 101.4375 C 146.945312 101.917969 147.070312 102.507812 147.199219 103.207031 C 147.28125 103.554688 147.363281 103.925781 147.457031 104.324219 C 147.542969 104.722656 147.65625 105.140625 147.785156 105.582031 C 148.265625 107.351562 148.957031 109.488281 150.019531 111.84375 C 150.273438 112.4375 150.574219 113.027344 150.871094 113.648438 C 151.191406 114.253906 151.507812 114.886719 151.871094 115.515625 C 152.582031 116.78125 153.394531 118.074219 154.320312 119.371094 C 155.140625 120.535156 156.054688 121.703125 157.039062 122.867188 C 156.53125 122.355469 156.050781 121.847656 155.59375 121.34375 C 153.84375 119.429688 152.441406 117.625 151.355469 116.082031 C 150.808594 115.3125 150.355469 114.601562 149.949219 113.984375 C 149.570312 113.355469 149.222656 112.828125 148.980469 112.382812 C 148.726562 111.941406 148.53125 111.601562 148.398438 111.375 C 148.273438 111.140625 148.210938 111.023438 148.210938 111.023438 C 148.210938 111.023438 148.257812 111.148438 148.351562 111.394531 C 148.449219 111.640625 148.601562 112.003906 148.796875 112.476562 C 148.988281 112.949219 149.265625 113.515625 149.570312 114.195312 C 149.898438 114.859375 150.277344 115.628906 150.75 116.460938 C 151.6875 118.128906 152.910156 120.125 154.539062 122.226562 C 156.152344 124.335938 158.132812 126.589844 160.449219 128.820312 C 162.761719 131.058594 165.398438 133.285156 168.207031 135.476562 C 171.015625 137.671875 173.996094 139.84375 176.910156 142.082031 C 178.363281 143.199219 179.796875 144.339844 181.15625 145.523438 C 182.503906 146.710938 183.796875 147.925781 184.933594 149.199219 C 186.074219 150.472656 187.054688 151.796875 187.84375 153.167969 C 188.246094 153.851562 188.570312 154.558594 188.871094 155.269531 C 189.164062 155.988281 189.390625 156.722656 189.585938 157.46875 C 189.761719 158.222656 189.921875 158.980469 190 159.769531 C 190.027344 159.964844 190.042969 160.164062 190.054688 160.363281 L 190.097656 160.957031 C 190.09375 161.335938 190.09375 161.714844 190.101562 162.089844 C 190.050781 163.589844 189.789062 165.039062 189.3125 166.429688 L 189.121094 166.945312 C 189.054688 167.121094 189.003906 167.296875 188.914062 167.457031 C 188.753906 167.796875 188.59375 168.128906 188.4375 168.464844 C 188.246094 168.789062 188.058594 169.113281 187.875 169.441406 C 187.683594 169.761719 187.449219 170.066406 187.242188 170.382812 C 186.355469 171.621094 185.296875 172.769531 184.125 173.820312 C 182.941406 174.855469 181.648438 175.785156 180.3125 176.625 C 179.628906 177.023438 178.960938 177.4375 178.257812 177.785156 C 177.570312 178.160156 176.855469 178.472656 176.160156 178.800781 C 173.332031 180.050781 170.464844 180.902344 167.769531 181.480469 C 165.070312 182.050781 162.535156 182.339844 160.289062 182.425781 C 158.039062 182.496094 156.078125 182.40625 154.472656 182.253906 C 153.675781 182.148438 152.953125 182.089844 152.34375 181.972656 C 151.726562 181.871094 151.195312 181.804688 150.78125 181.699219 C 149.9375 181.523438 149.488281 181.425781 149.488281 181.425781 C 149.488281 181.425781 149.917969 181.589844 150.726562 181.894531 C 151.128906 182.058594 151.644531 182.203125 152.246094 182.394531 C 152.84375 182.601562 153.5625 182.753906 154.355469 182.953125 C 155.960938 183.296875 157.949219 183.65625 160.269531 183.789062 C 162.59375 183.933594 165.246094 183.898438 168.113281 183.519531 C 169.433594 183.34375 170.800781 183.097656 172.195312 182.777344 C 171.53125 182.988281 170.878906 183.179688 170.246094 183.351562 C 167.964844 183.949219 165.925781 184.34375 164.230469 184.574219 C 163.382812 184.683594 162.625 184.761719 161.960938 184.835938 C 161.296875 184.886719 160.730469 184.929688 160.273438 184.960938 C 159.8125 184.992188 159.460938 184.996094 159.222656 185.007812 C 158.984375 185.015625 158.863281 185.019531 158.863281 185.019531 C 158.863281 185.019531 158.984375 185.03125 159.21875 185.058594 C 159.457031 185.082031 159.808594 185.128906 160.269531 185.167969 C 160.730469 185.195312 161.300781 185.226562 161.972656 185.269531 C 162.644531 185.28125 163.417969 185.300781 164.289062 185.28125 C 166.023438 185.238281 168.136719 185.097656 170.539062 184.683594 C 171.074219 184.59375 171.628906 184.488281 172.191406 184.371094 C 172.179688 184.375 172.167969 184.378906 172.15625 184.382812 C 169.28125 185.242188 166.554688 185.757812 164.117188 186.054688 C 161.675781 186.335938 159.523438 186.414062 157.742188 186.398438 C 156.855469 186.367188 156.058594 186.367188 155.367188 186.304688 C 154.679688 186.257812 154.085938 186.234375 153.609375 186.164062 C 152.65625 186.058594 152.144531 186 152.144531 186 C 152.144531 186 152.640625 186.128906 153.574219 186.367188 C 154.042969 186.492188 154.628906 186.59375 155.316406 186.734375 C 156 186.886719 156.800781 186.984375 157.695312 187.105469 C 159.488281 187.3125 161.6875 187.496094 164.21875 187.414062 C 166.742188 187.339844 169.605469 187.066406 172.667969 186.382812 C 175.726562 185.703125 179.007812 184.664062 182.277344 183.042969 C 183.917969 182.234375 185.535156 181.253906 187.121094 180.136719 C 188.691406 178.988281 190.207031 177.667969 191.59375 176.148438 C 191.929688 175.753906 192.265625 175.359375 192.605469 174.964844 C 192.757812 174.753906 192.910156 174.546875 193.066406 174.335938 C 192.980469 174.46875 192.894531 174.601562 192.8125 174.734375 C 192.679688 174.957031 192.523438 175.15625 192.375 175.359375 C 192.226562 175.558594 192.078125 175.757812 191.933594 175.957031 C 191.785156 176.152344 191.640625 176.355469 191.492188 176.542969 C 191.335938 176.726562 191.183594 176.90625 191.03125 177.085938 C 190.722656 177.441406 190.4375 177.808594 190.128906 178.132812 C 189.511719 178.773438 188.9375 179.410156 188.339844 179.933594 C 188.042969 180.203125 187.761719 180.464844 187.484375 180.71875 C 187.199219 180.957031 186.925781 181.1875 186.660156 181.40625 C 186.394531 181.625 186.144531 181.84375 185.898438 182.042969 C 185.644531 182.230469 185.40625 182.414062 185.175781 182.585938 C 184.269531 183.285156 183.523438 183.78125 183.015625 184.132812 C 182.765625 184.308594 182.570312 184.445312 182.433594 184.523438 C 182.300781 184.609375 182.230469 184.652344 182.230469 184.652344 C 182.230469 184.652344 182.308594 184.625 182.457031 184.570312 C 182.609375 184.519531 182.828125 184.433594 183.113281 184.3125 C 183.675781 184.058594 184.53125 183.742188 185.554688 183.1875 C 185.816406 183.050781 186.085938 182.910156 186.375 182.761719 C 186.65625 182.605469 186.949219 182.429688 187.253906 182.25 C 187.558594 182.066406 187.878906 181.878906 188.207031 181.679688 C 188.527344 181.457031 188.855469 181.230469 189.199219 180.992188 C 189.890625 180.539062 190.578125 179.964844 191.320312 179.375 C 191.6875 179.078125 192.039062 178.730469 192.410156 178.390625 C 192.59375 178.21875 192.78125 178.046875 192.96875 177.867188 C 193.152344 177.6875 193.328125 177.488281 193.507812 177.292969 C 193.6875 177.097656 193.871094 176.902344 194.054688 176.699219 C 194.238281 176.5 194.429688 176.300781 194.597656 176.074219 C 194.945312 175.632812 195.296875 175.179688 195.65625 174.71875 C 195.984375 174.234375 196.3125 173.730469 196.644531 173.21875 C 196.816406 172.964844 196.957031 172.6875 197.105469 172.414062 C 197.253906 172.136719 197.402344 171.859375 197.550781 171.578125 C 198.703125 169.3125 199.546875 166.664062 199.863281 163.867188 C 199.898438 163.515625 199.9375 163.164062 199.976562 162.8125 C 199.996094 162.460938 199.996094 162.105469 200.007812 161.75 C 200.011719 161.398438 200.019531 161.039062 200.023438 160.683594 C 200.03125 160.324219 200 159.984375 199.988281 159.632812 C 199.90625 158.242188 199.738281 156.8125 199.402344 155.394531 " fill-opacity="1" fill-rule="nonzero"/></g><g fill="#004aad" fill-opacity="1"><g transform="translate(75.078324, 252.088899)"><g><path d="M 3.863281 0 L 11.175781 0 L 11.175781 -10.027344 L 16.007812 -10.027344 L 21.757812 0 L 30.21875 0 L 23.550781 -11.175781 C 27.414062 -12.878906 29.667969 -16.375 29.667969 -21.113281 C 29.667969 -27.964844 24.976562 -32.199219 17.617188 -32.199219 L 3.863281 -32.199219 Z M 11.085938 -16.191406 L 11.085938 -25.941406 L 16.652344 -25.941406 C 20.238281 -25.941406 22.261719 -24.195312 22.261719 -21.066406 C 22.261719 -17.9375 20.238281 -16.191406 16.652344 -16.191406 Z M 11.085938 -16.191406 "/></g></g></g><g fill="#004aad" fill-opacity="1"><g transform="translate(106.999596, 252.088899)"><g><path d="M 14.902344 0.644531 C 20.835938 0.644531 25.527344 -2.390625 27.644531 -7.496094 L 20.5625 -7.496094 C 19.410156 -5.886719 17.339844 -4.96875 15.042969 -4.96875 C 11.867188 -4.96875 9.382812 -6.761719 8.738281 -10.074219 L 28.105469 -10.074219 C 28.519531 -18.90625 23.273438 -24.792969 14.996094 -24.792969 C 7.175781 -24.792969 1.792969 -19.59375 1.792969 -12.097656 C 1.792969 -4.554688 7.128906 0.644531 14.902344 0.644531 Z M 8.785156 -14.488281 C 9.566406 -17.433594 11.960938 -19.226562 15.042969 -19.226562 C 18.261719 -19.226562 20.5625 -17.433594 21.34375 -14.488281 Z M 8.785156 -14.488281 "/></g></g></g><g fill="#004aad" fill-opacity="1"><g transform="translate(136.391083, 252.088899)"><g><path d="M 3.496094 0 L 10.488281 0 L 10.488281 -12.695312 C 10.488281 -16.511719 12.601562 -18.8125 15.824219 -18.8125 C 18.8125 -18.8125 20.605469 -16.789062 20.605469 -13.246094 L 20.605469 0 L 27.597656 0 L 27.597656 -13.9375 C 27.597656 -20.652344 23.828125 -24.792969 17.570312 -24.792969 C 14.855469 -24.792969 12.328125 -23.964844 10.488281 -22.308594 L 10.488281 -34.039062 L 3.496094 -34.039062 Z M 3.496094 0 "/></g></g></g><g fill="#004aad" fill-opacity="1"><g transform="translate(166.564499, 252.088899)"><g><path d="M 14.902344 0.644531 C 20.835938 0.644531 25.527344 -2.390625 27.644531 -7.496094 L 20.5625 -7.496094 C 19.410156 -5.886719 17.339844 -4.96875 15.042969 -4.96875 C 11.867188 -4.96875 9.382812 -6.761719 8.738281 -10.074219 L 28.105469 -10.074219 C 28.519531 -18.90625 23.273438 -24.792969 14.996094 -24.792969 C 7.175781 -24.792969 1.792969 -19.59375 1.792969 -12.097656 C 1.792969 -4.554688 7.128906 0.644531 14.902344 0.644531 Z M 8.785156 -14.488281 C 9.566406 -17.433594 11.960938 -19.226562 15.042969 -19.226562 C 18.261719 -19.226562 20.5625 -17.433594 21.34375 -14.488281 Z M 8.785156 -14.488281 "/></g></g></g><g fill="#004aad" fill-opacity="1"><g transform="translate(195.955986, 252.088899)"><g><path d="M 11.546875 0.460938 C 15.132812 0.460938 18.078125 -0.691406 20.148438 -2.804688 L 20.929688 0 L 26.125 0 L 26.125 -14.535156 C 26.125 -20.929688 21.804688 -24.792969 14.582031 -24.792969 C 8.417969 -24.792969 4.371094 -21.847656 3.496094 -16.605469 L 10.210938 -16.605469 C 10.625 -18.308594 12.375 -19.457031 14.628906 -19.457031 C 17.386719 -19.457031 19.273438 -17.894531 19.273438 -15.5 L 19.273438 -14.398438 L 10.535156 -14.398438 C 5.519531 -14.398438 2.300781 -11.5 2.300781 -7.039062 C 2.300781 -2.390625 5.839844 0.460938 11.546875 0.460938 Z M 9.199219 -7.3125 C 9.199219 -8.96875 10.578125 -10.027344 12.695312 -10.027344 L 19.320312 -10.027344 C 19.179688 -6.761719 16.652344 -4.554688 13.15625 -4.554688 C 10.761719 -4.554688 9.199219 -5.65625 9.199219 -7.3125 Z M 9.199219 -7.3125 "/></g></g></g><g fill="#004aad" fill-opacity="1"><g transform="translate(224.657537, 252.088899)"><g><path d="M 3.496094 0 L 10.488281 0 L 10.488281 -10.671875 C 10.488281 -15.867188 12.925781 -17.800781 16.925781 -17.800781 L 19.59375 -17.800781 L 19.59375 -24.148438 L 16.972656 -24.148438 C 13.429688 -24.148438 11.175781 -23.183594 9.613281 -20.929688 L 8.695312 -24.148438 L 3.496094 -24.148438 Z M 3.496094 0 "/></g></g></g><g fill="#004aad" fill-opacity="1"><g transform="translate(245.355756, 252.088899)"><g><path d="M 12.789062 0.644531 C 19.320312 0.644531 23.273438 -2.207031 23.273438 -6.808594 C 23.273438 -10.761719 20.332031 -13.292969 14.351562 -14.488281 C 10.210938 -15.316406 8.921875 -16.007812 8.921875 -17.480469 C 8.921875 -18.90625 10.210938 -19.734375 12.28125 -19.734375 C 14.628906 -19.734375 16.054688 -18.675781 16.191406 -16.835938 L 22.859375 -16.835938 C 22.539062 -21.941406 18.765625 -24.792969 12.328125 -24.792969 C 5.839844 -24.792969 2.160156 -22.171875 2.160156 -17.480469 C 2.160156 -13.476562 4.921875 -11.085938 11.085938 -9.980469 C 14.8125 -9.335938 16.375 -8.371094 16.375 -6.855469 C 16.375 -5.425781 15.085938 -4.554688 12.878906 -4.554688 C 10.304688 -4.554688 8.738281 -5.796875 8.695312 -7.773438 L 1.839844 -7.773438 C 1.839844 -2.714844 6.164062 0.644531 12.789062 0.644531 Z M 12.789062 0.644531 "/></g></g></g><g fill="#004aad" fill-opacity="1"><g transform="translate(270.055629, 252.088899)"><g><path d="M 14.902344 0.644531 C 20.835938 0.644531 25.527344 -2.390625 27.644531 -7.496094 L 20.5625 -7.496094 C 19.410156 -5.886719 17.339844 -4.96875 15.042969 -4.96875 C 11.867188 -4.96875 9.382812 -6.761719 8.738281 -10.074219 L 28.105469 -10.074219 C 28.519531 -18.90625 23.273438 -24.792969 14.996094 -24.792969 C 7.175781 -24.792969 1.792969 -19.59375 1.792969 -12.097656 C 1.792969 -4.554688 7.128906 0.644531 14.902344 0.644531 Z M 8.785156 -14.488281 C 9.566406 -17.433594 11.960938 -19.226562 15.042969 -19.226562 C 18.261719 -19.226562 20.5625 -17.433594 21.34375 -14.488281 Z M 8.785156 -14.488281 "/></g></g></g><g fill="#004aad" fill-opacity="1"><g transform="translate(136.942671, 270.568079)"><g><path d="M 1.015625 0 L 1.566406 0 L 1.566406 -6.300781 L 1.015625 -6.300781 Z M 1.015625 0 "/></g></g></g><g fill="#004aad" fill-opacity="1"><g transform="translate(143.125724, 270.568079)"><g><path d="M 1.015625 0 L 1.558594 0 L 1.558594 -5.363281 L 5.390625 0 L 5.902344 0 L 5.902344 -6.300781 L 5.363281 -6.300781 L 5.363281 -0.945312 L 1.53125 -6.300781 L 1.015625 -6.300781 Z M 1.015625 0 "/></g></g></g><g fill="#004aad" fill-opacity="1"><g transform="translate(153.646797, 270.568079)"><g><path d="M 2.511719 0 L 3.050781 0 L 3.050781 -5.777344 L 5.230469 -5.777344 L 5.230469 -6.300781 L 0.34375 -6.300781 L 0.34375 -5.777344 L 2.511719 -5.777344 Z M 2.511719 0 "/></g></g></g><g fill="#004aad" fill-opacity="1"><g transform="translate(162.817867, 270.568079)"><g><path d="M 1.015625 0 L 4.824219 0 L 4.824219 -0.511719 L 1.566406 -0.511719 L 1.566406 -2.960938 L 4.492188 -2.960938 L 4.492188 -3.464844 L 1.566406 -3.464844 L 1.566406 -5.785156 L 4.726562 -5.785156 L 4.726562 -6.300781 L 1.015625 -6.300781 Z M 1.015625 0 "/></g></g></g><g fill="#004aad" fill-opacity="1"><g transform="translate(171.898931, 270.568079)"><g><path d="M 1.015625 0 L 1.566406 0 L 1.566406 -2.367188 L 3.195312 -2.367188 L 4.886719 0 L 5.542969 0 L 3.835938 -2.410156 C 4.824219 -2.582031 5.445312 -3.292969 5.445312 -4.339844 C 5.445312 -5.535156 4.617188 -6.300781 3.347656 -6.300781 L 1.015625 -6.300781 Z M 1.566406 -2.890625 L 1.566406 -5.777344 L 3.292969 -5.777344 C 4.292969 -5.777344 4.886719 -5.230469 4.886719 -4.339844 C 4.886719 -3.4375 4.292969 -2.890625 3.292969 -2.890625 Z M 1.566406 -2.890625 "/></g></g></g><g fill="#004aad" fill-opacity="1"><g transform="translate(181.655001, 270.568079)"><g><path d="M 2.726562 0 L 3.25 0 L 5.769531 -6.300781 L 5.191406 -6.300781 L 3.933594 -3.148438 L 2.988281 -0.757812 L 0.78125 -6.300781 L 0.199219 -6.300781 Z M 2.726562 0 "/></g></g></g><g fill="#004aad" fill-opacity="1"><g transform="translate(191.22207, 270.568079)"><g><path d="M 1.015625 0 L 1.566406 0 L 1.566406 -6.300781 L 1.015625 -6.300781 Z M 1.015625 0 "/></g></g></g><g fill="#004aad" fill-opacity="1"><g transform="translate(197.405123, 270.568079)"><g><path d="M 1.015625 0 L 4.824219 0 L 4.824219 -0.511719 L 1.566406 -0.511719 L 1.566406 -2.960938 L 4.492188 -2.960938 L 4.492188 -3.464844 L 1.566406 -3.464844 L 1.566406 -5.785156 L 4.726562 -5.785156 L 4.726562 -6.300781 L 1.015625 -6.300781 Z M 1.015625 0 "/></g></g></g><g fill="#004aad" fill-opacity="1"><g transform="translate(206.486187, 270.568079)"><g><path d="M 2.277344 0 L 2.800781 0 L 3.691406 -2.429688 L 4.804688 -5.472656 L 6.820312 0 L 7.335938 0 L 9.40625 -6.300781 L 8.828125 -6.300781 L 7.902344 -3.429688 L 7.066406 -0.847656 L 5.066406 -6.300781 L 4.546875 -6.300781 L 3.5 -3.429688 L 2.554688 -0.855469 L 1.726562 -3.429688 L 0.792969 -6.300781 L 0.214844 -6.300781 Z M 2.277344 0 "/></g></g></g><g fill="#004aad" fill-opacity="1"><g transform="translate(219.707288, 270.568079)"><g/></g></g><g fill="#004aad" fill-opacity="1"><g transform="translate(225.719333, 270.568079)"><g><path d="M 0.199219 0 L 0.78125 0 L 1.429688 -1.585938 L 4.707031 -1.585938 L 5.363281 0 L 5.941406 0 L 3.328125 -6.300781 L 2.808594 -6.300781 Z M 1.648438 -2.089844 L 3.070312 -5.554688 L 4.5 -2.089844 Z M 1.648438 -2.089844 "/></g></g></g><g fill="#004aad" fill-opacity="1"><g transform="translate(235.466408, 270.568079)"><g><path d="M 1.015625 0 L 1.566406 0 L 1.566406 -6.300781 L 1.015625 -6.300781 Z M 1.015625 0 "/></g></g></g></svg>