<svg xmlns="http://www.w3.org/2000/svg" xmlns:xlink="http://www.w3.org/1999/xlink" width="500" zoomAndPan="magnify" viewBox="0 0 375 374.999991" height="500" preserveAspectRatio="xMidYMid meet" version="1.0"><defs><g/><clipPath id="ba19843f2e"><path d="M 122.09375 70.363281 L 250 70.363281 L 250 193.363281 L 122.09375 193.363281 Z M 122.09375 70.363281 " clip-rule="nonzero"/></clipPath></defs><rect x="-37.5" width="450" fill="#ffffff" y="-37.499999" height="449.999989" fill-opacity="1"/><rect x="-37.5" width="450" fill="#fefefe" y="-37.499999" height="449.999989" fill-opacity="1"/><g clip-path="url(#ba19843f2e)"><path fill="#ffafcc" d="M 248.164062 104.222656 C 242.882812 83.742188 225.359375 70.550781 204.207031 70.539062 C 179.722656 70.523438 155.234375 70.53125 130.753906 70.53125 L 140.347656 87.4375 C 161.644531 87.394531 182.933594 87.40625 204.234375 87.425781 C 211.261719 87.425781 217.589844 89.488281 222.925781 94.167969 C 231.234375 101.445312 233.757812 110.890625 232.652344 121.492188 C 231.390625 133.765625 223.335938 144.074219 212.34375 146.710938 C 207.683594 147.835938 202.667969 147.394531 197.839844 147.878906 C 195.105469 148.164062 193.714844 147.027344 192.421875 144.742188 C 183.523438 129.082031 174.488281 113.496094 165.496094 97.894531 C 163.855469 95.042969 162.066406 95.011719 160.445312 97.8125 C 158.058594 101.945312 155.671875 106.082031 153.285156 110.210938 C 143.199219 127.695312 133.109375 145.164062 123.035156 162.65625 C 122.730469 163.191406 122.523438 163.78125 122.097656 164.730469 L 124.832031 164.730469 C 143.765625 164.730469 162.699219 164.769531 181.632812 164.664062 C 183.011719 164.652344 183.964844 164.949219 184.742188 165.621094 C 185.238281 166.03125 185.648438 166.585938 186.058594 167.3125 C 191.003906 176.054688 196.058594 184.730469 201.035156 193.457031 L 220.621094 193.457031 C 218.285156 189.398438 216.046875 185.539062 213.824219 181.675781 C 210.660156 176.195312 207.511719 170.707031 204.390625 165.257812 C 204.765625 164.964844 204.882812 164.792969 205.019531 164.785156 C 205.585938 164.734375 206.167969 164.714844 206.746094 164.691406 C 215.402344 164.332031 223.25 161.621094 230.367188 156.71875 C 247.953125 144.652344 252.894531 122.605469 248.164062 104.222656 Z M 151.238281 147.640625 C 155.152344 140.847656 158.929688 134.292969 162.925781 127.355469 C 165.179688 131.265625 167.355469 135.050781 169.542969 138.859375 C 171.21875 141.753906 172.886719 144.664062 174.601562 147.640625 Z M 151.238281 147.640625 " fill-opacity="1" fill-rule="nonzero"/></g><g fill="#ffafcc" fill-opacity="1"><g transform="translate(111.296191, 262.85322)"><g><path d="M 6.6875 0 L 6.6875 -8.046875 L 10.484375 -8.046875 L 14.984375 0 L 19.296875 0 L 14.078125 -9.109375 C 15.179688 -9.648438 16.0625 -10.398438 16.71875 -11.359375 C 17.375 -12.316406 17.703125 -13.429688 17.703125 -14.703125 C 17.703125 -16.828125 16.914062 -18.445312 15.34375 -19.5625 C 13.769531 -20.675781 11.753906 -21.234375 9.296875 -21.234375 L 2.65625 -21.234375 L 2.65625 0 Z M 9.171875 -17.859375 C 12.003906 -17.859375 13.421875 -16.742188 13.421875 -14.515625 C 13.421875 -13.429688 13.039062 -12.632812 12.28125 -12.125 C 11.519531 -11.613281 10.503906 -11.359375 9.234375 -11.359375 L 6.6875 -11.359375 L 6.6875 -17.859375 Z M 9.171875 -17.859375 "/></g></g></g><g fill="#ffafcc" fill-opacity="1"><g transform="translate(130.902688, 262.85322)"><g><path d="M 6.6875 -3.15625 L 6.6875 -9.109375 L 14.265625 -9.109375 L 13.609375 -12.328125 L 6.6875 -12.328125 L 6.6875 -18.046875 L 15.953125 -18.046875 L 15.328125 -21.234375 L 2.65625 -21.234375 L 2.65625 0 L 17.515625 0 L 16.859375 -3.15625 Z M 6.6875 -3.15625 "/></g></g></g><g fill="#ffafcc" fill-opacity="1"><g transform="translate(149.041827, 262.85322)"><g><path d="M 15.046875 -21.234375 L 15.046875 -12.234375 L 6.6875 -12.234375 L 6.6875 -21.390625 L 2.65625 -21.234375 L 2.65625 0 L 6.6875 0 L 6.6875 -8.984375 L 15.046875 -8.984375 L 15.046875 0 L 19.078125 0 L 19.078125 -21.234375 Z M 15.046875 -21.234375 "/></g></g></g><g fill="#ffafcc" fill-opacity="1"><g transform="translate(170.771329, 262.85322)"><g><path d="M 6.6875 -3.15625 L 6.6875 -9.109375 L 14.265625 -9.109375 L 13.609375 -12.328125 L 6.6875 -12.328125 L 6.6875 -18.046875 L 15.953125 -18.046875 L 15.328125 -21.234375 L 2.65625 -21.234375 L 2.65625 0 L 17.515625 0 L 16.859375 -3.15625 Z M 6.6875 -3.15625 "/></g></g></g><g fill="#ffafcc" fill-opacity="1"><g transform="translate(188.910468, 262.85322)"><g><path d="M 4.375 0 L 6.25 -5 L 14.296875 -5 L 16.203125 0.3125 L 20.265625 -0.25 L 12.015625 -21.234375 L 8.578125 -21.234375 L 0.3125 0 Z M 10.203125 -15.671875 L 13.046875 -8.265625 L 7.4375 -8.265625 Z M 10.203125 -15.671875 "/></g></g></g><g fill="#ffafcc" fill-opacity="1"><g transform="translate(209.484806, 262.85322)"><g><path d="M 6.6875 0 L 6.6875 -8.046875 L 10.484375 -8.046875 L 14.984375 0 L 19.296875 0 L 14.078125 -9.109375 C 15.179688 -9.648438 16.0625 -10.398438 16.71875 -11.359375 C 17.375 -12.316406 17.703125 -13.429688 17.703125 -14.703125 C 17.703125 -16.828125 16.914062 -18.445312 15.34375 -19.5625 C 13.769531 -20.675781 11.753906 -21.234375 9.296875 -21.234375 L 2.65625 -21.234375 L 2.65625 0 Z M 9.171875 -17.859375 C 12.003906 -17.859375 13.421875 -16.742188 13.421875 -14.515625 C 13.421875 -13.429688 13.039062 -12.632812 12.28125 -12.125 C 11.519531 -11.613281 10.503906 -11.359375 9.234375 -11.359375 L 6.6875 -11.359375 L 6.6875 -17.859375 Z M 9.171875 -17.859375 "/></g></g></g><g fill="#ffafcc" fill-opacity="1"><g transform="translate(229.091303, 262.85322)"><g><path d="M 1.46875 -1.40625 C 2.175781 -0.96875 3.179688 -0.554688 4.484375 -0.171875 C 5.785156 0.210938 6.875 0.40625 7.75 0.40625 C 9.40625 0.40625 10.832031 0.15625 12.03125 -0.34375 C 13.226562 -0.84375 14.132812 -1.53125 14.75 -2.40625 C 15.363281 -3.28125 15.671875 -4.289062 15.671875 -5.4375 C 15.671875 -6.457031 15.425781 -7.34375 14.9375 -8.09375 C 14.445312 -8.851562 13.835938 -9.5 13.109375 -10.03125 C 12.378906 -10.5625 11.398438 -11.179688 10.171875 -11.890625 L 9.265625 -12.421875 L 8.265625 -12.984375 C 7.210938 -13.609375 6.453125 -14.125 5.984375 -14.53125 C 5.515625 -14.9375 5.28125 -15.441406 5.28125 -16.046875 C 5.28125 -16.753906 5.578125 -17.289062 6.171875 -17.65625 C 6.765625 -18.019531 7.523438 -18.203125 8.453125 -18.203125 C 9.265625 -18.203125 10.019531 -18.085938 10.71875 -17.859375 C 11.414062 -17.628906 12.191406 -17.304688 13.046875 -16.890625 L 14.390625 -20.140625 C 12.179688 -21.203125 10.179688 -21.734375 8.390625 -21.734375 C 6.878906 -21.734375 5.578125 -21.488281 4.484375 -21 C 3.390625 -20.507812 2.550781 -19.832031 1.96875 -18.96875 C 1.382812 -18.101562 1.09375 -17.128906 1.09375 -16.046875 C 1.09375 -15.023438 1.390625 -14.101562 1.984375 -13.28125 C 2.578125 -12.457031 3.285156 -11.742188 4.109375 -11.140625 C 4.929688 -10.535156 6.039062 -9.816406 7.4375 -8.984375 L 8.359375 -8.421875 C 9.421875 -7.847656 10.207031 -7.347656 10.71875 -6.921875 C 11.226562 -6.492188 11.484375 -6.019531 11.484375 -5.5 C 11.484375 -4.75 11.160156 -4.175781 10.515625 -3.78125 C 9.867188 -3.382812 8.925781 -3.1875 7.6875 -3.1875 C 6.875 -3.1875 5.976562 -3.335938 5 -3.640625 C 4.019531 -3.941406 3.144531 -4.289062 2.375 -4.6875 Z M 1.46875 -1.40625 "/></g></g></g><g fill="#ffafcc" fill-opacity="1"><g transform="translate(245.544532, 262.85322)"><g><path d="M 6.6875 -3.15625 L 6.6875 -9.109375 L 14.265625 -9.109375 L 13.609375 -12.328125 L 6.6875 -12.328125 L 6.6875 -18.046875 L 15.953125 -18.046875 L 15.328125 -21.234375 L 2.65625 -21.234375 L 2.65625 0 L 17.515625 0 L 16.859375 -3.15625 Z M 6.6875 -3.15625 "/></g></g></g><g fill="#fefefe" fill-opacity="1"><g transform="translate(93.682326, 178.92465)"><g><path d="M 33.984375 15.109375 L 9.59375 4.265625 L 52.25 -91.625 L 76.640625 -80.78125 Z M 33.984375 15.109375 "/></g></g></g><g fill="#ffafcc" fill-opacity="1"><g transform="translate(187.624633, 147.793507)"><g><path d="M 11.75 0 L 3.53125 0 C 3.195312 0 2.90625 -0.117188 2.65625 -0.359375 C 2.414062 -0.609375 2.296875 -0.898438 2.296875 -1.234375 L 2.296875 -22.625 C 2.296875 -22.96875 2.414062 -23.257812 2.65625 -23.5 C 2.90625 -23.75 3.195312 -23.875 3.53125 -23.875 L 11.75 -23.875 C 12.082031 -23.875 12.367188 -23.75 12.609375 -23.5 C 12.859375 -23.257812 12.984375 -22.96875 12.984375 -22.625 L 12.984375 -1.234375 C 12.984375 -0.898438 12.859375 -0.609375 12.609375 -0.359375 C 12.367188 -0.117188 12.082031 0 11.75 0 Z M 12.765625 -32.734375 L 12.765625 -27.171875 C 12.765625 -26.835938 12.640625 -26.546875 12.390625 -26.296875 C 12.148438 -26.054688 11.859375 -25.9375 11.515625 -25.9375 L 3.765625 -25.9375 C 3.429688 -25.9375 3.140625 -26.054688 2.890625 -26.296875 C 2.648438 -26.546875 2.53125 -26.835938 2.53125 -27.171875 L 2.53125 -32.734375 C 2.53125 -33.066406 2.648438 -33.351562 2.890625 -33.59375 C 3.140625 -33.84375 3.429688 -33.96875 3.765625 -33.96875 L 11.515625 -33.96875 C 11.859375 -33.96875 12.148438 -33.84375 12.390625 -33.59375 C 12.640625 -33.351562 12.765625 -33.066406 12.765625 -32.734375 Z M 12.765625 -32.734375 "/></g></g></g></svg>